<svg width="1440" height="900" viewBox="0 0 1440 900" fill="none" xmlns="http://www.w3.org/2000/svg">
<rect width="1440" height="900" fill="#F1F4FE"/>
<mask id="mask0_0_1" style="mask-type:luminance" maskUnits="userSpaceOnUse" x="700" y="425" width="16" height="17">
<rect x="700" y="425.801" width="16" height="16" fill="white"/>
</mask>
<g mask="url(#mask0_0_1)">
<path fill-rule="evenodd" clip-rule="evenodd" d="M716 433.801C716 433.801 713 428.301 708 428.301C703 428.301 700 433.801 700 433.801C700 433.801 703 439.301 708 439.301C713 439.301 716 433.801 716 433.801ZM701.173 433.801C701.657 434.536 702.213 435.22 702.833 435.844C704.12 437.133 705.88 438.301 708 438.301C710.12 438.301 711.879 437.133 713.168 435.844C713.788 435.22 714.344 434.536 714.828 433.801C714.344 433.066 713.788 432.381 713.168 431.758C711.879 430.469 710.119 429.301 708 429.301C705.88 429.301 704.121 430.469 702.832 431.758C702.212 432.381 701.656 433.066 701.172 433.801L701.173 433.801Z" fill="#BEBEBE"/>
<path fill-rule="evenodd" clip-rule="evenodd" d="M708 431.301C706.619 431.301 705.5 432.42 705.5 433.801C705.5 435.181 706.619 436.301 708 436.301C709.381 436.301 710.5 435.182 710.5 433.801C710.5 432.42 709.381 431.301 708 431.301H708ZM704.5 433.801C704.5 432.55 705.167 431.395 706.25 430.77C707.333 430.144 708.667 430.144 709.75 430.77C710.833 431.395 711.5 432.55 711.5 433.801C711.5 435.051 710.833 436.207 709.75 436.832C708.667 437.457 707.333 437.457 706.25 436.832C705.167 436.207 704.5 435.051 704.5 433.801V433.801Z" fill="#BEBEBE"/>
</g>
</svg>
